<svg xmlns="http://www.w3.org/2000/svg" xmlns:xlink="http://www.w3.org/1999/xlink" version="1.1" width="150" height="150" viewBox="0 0 150 150" xml:space="preserve">
<desc>Created with Fabric.js 3.5.0</desc>
<defs>
</defs>
<rect x="0" y="0" width="100%" height="100%" fill="rgba(255,255,255,0)"/>
<g transform="matrix(3.0239 0 0 3.0239 76.2023 75.5975)" id="661410">
<g style="" vector-effect="non-scaling-stroke">
		<g transform="matrix(1 0 0 1 24.8 25)">
<rect style="stroke: none; stroke-width: 1; stroke-dasharray: none; stroke-linecap: butt; stroke-dashoffset: 0; stroke-linejoin: miter; stroke-miterlimit: 4; is-custom-font: none; font-file-url: none; fill: rgb(255,255,255); fill-opacity: 0; fill-rule: nonzero; opacity: 1;" x="-50" y="-50" rx="0" ry="0" width="100" height="100"/>
</g>
		<g transform="matrix(0.322 0 0 0.2229 -2.0701 -0.0023)" id="680175">
<path style="stroke: none; stroke-width: 1; stroke-dasharray: none; stroke-linecap: butt; stroke-dashoffset: 0; stroke-linejoin: miter; stroke-miterlimit: 4; is-custom-font: none; font-file-url: none; fill: rgb(255,255,255); fill-rule: nonzero; opacity: 1;" vector-effect="non-scaling-stroke" transform=" translate(-78.4998, -78.5)" d="M 78.5 0 C 52.9419 0 32.1166 35.2271 32.1166 78.5 C 32.1166 121.773 52.9419 157 78.5 157 C 104.058 157 124.883 121.773 124.883 78.5 C 124.883 35.2271 104.058 0 78.5 0 Z" stroke-linecap="round"/>
</g>
		<g transform="matrix(0.016 0 0 -0.016 -0.0551 -0.0408)" id="127528">
<path style="stroke: none; stroke-width: 1; stroke-dasharray: none; stroke-linecap: butt; stroke-dashoffset: 0; stroke-linejoin: miter; stroke-miterlimit: 4; is-custom-font: none; font-file-url: none; fill: rgb(186,0,0); fill-rule: nonzero; opacity: 1;" vector-effect="non-scaling-stroke" transform=" translate(-2885.2141, -2164.2059)" d="M 2669 3633 c -6 -6 -29 -16 -52 -21 c -73 -17 -191 -50 -221 -61 c -32 -13 -173 -4 -182 11 c -8 13 -34 -11 -28 -26 c 2 -6 -6 -38 -19 -69 c -18 -44 -39 -72 -83 -111 c -84 -74 -161 -151 -222 -222 c -46 -54 -59 -62 -106 -73 c -83 -18 -110 -62 -93 -152 l 10 -57 l -58 -118 c -78 -160 -105 -224 -105 -254 c 0 -23 -20 -70 -55 -130 c -10 -17 -15 -55 -15 -121 c 0 -89 -2 -97 -25 -119 c -32 -30 -33 -60 -2 -60 c 14 0 30 12 44 35 c 21 32 25 34 50 23 c 50 -21 62 -40 72 -113 c 6 -38 15 -86 21 -105 c 9 -30 7 -39 -11 -64 c -18 -23 -20 -33 -10 -47 c 20 -34 7 -98 -22 -100 c -22 -1 -117 -125 -117 -153 c 0 -14 -4 -26 -10 -26 c -5 0 -10 -7 -10 -16 c 0 -11 6 -15 19 -11 c 13 3 22 -3 30 -20 c 17 -37 14 -50 -20 -73 c -41 -30 -28 -39 20 -12 l 38 22 l 39 -41 c 21 -23 52 -54 69 -70 c 26 -26 28 -32 17 -50 c -17 -26 -7 -37 18 -21 c 24 15 26 5 3 -20 c -12 -13 -13 -18 -3 -18 c 29 0 79 24 83 40 c 6 24 136 38 152 17 c 9 -13 14 -13 35 -1 c 14 7 28 13 32 14 c 3 0 44 -36 90 -81 c 95 -93 195 -162 253 -175 c 34 -8 44 -17 67 -59 c 15 -28 24 -58 22 -67 c -4 -12 0 -18 10 -18 c 9 0 16 -11 18 -28 c 2 -18 10 -28 23 -30 c 17 -2 20 -9 17 -52 c -4 -48 -3 -50 23 -50 c 16 0 38 12 56 29 c 40 41 37 56 -15 79 c -22 10 -26 16 -18 24 c 7 7 12 20 12 29 c 0 9 7 20 16 23 c 11 4 14 13 11 27 c -5 19 -3 21 26 15 c 18 -3 38 -15 46 -26 c 7 -11 18 -20 24 -20 c 6 0 18 -7 28 -16 c 16 -14 20 -14 43 1 c 18 12 39 16 73 12 c 78 -8 154 -32 165 -51 c 7 -13 17 -16 40 -11 c 24 6 33 3 45 -15 c 9 -13 23 -20 36 -18 c 18 2 22 9 20 38 c -2 34 0 37 44 49 l 46 14 l 32 -38 c 36 -44 60 -41 50 6 c -5 23 -3 31 12 36 c 10 3 35 21 55 38 c 21 18 56 37 78 44 c 23 7 62 23 87 37 c 25 13 60 24 77 24 c 20 0 36 7 43 19 c 6 10 45 40 85 66 c 40 26 85 55 99 65 c 16 12 35 16 54 12 c 25 -4 28 -3 22 18 c -5 20 12 42 109 139 c 113 113 117 119 183 256 c 78 159 101 212 101 231 c 0 7 4 24 10 38 c 8 23 12 25 35 14 c 36 -16 45 0 13 27 c -24 20 -26 27 -18 61 c 4 22 14 72 20 112 c 8 50 20 82 36 101 c 38 46 31 99 -21 163 c -19 22 -24 44 -30 130 c -4 57 -13 112 -20 123 c -7 11 -16 36 -20 55 c -10 47 -87 246 -113 292 c -12 20 -33 55 -47 78 c -15 23 -36 63 -46 89 c -20 45 -84 121 -102 121 c -5 0 -27 15 -47 33 c -21 17 -61 52 -90 77 c -58 50 -149 114 -195 136 c -16 7 -43 23 -60 34 c -39 26 -59 35 -120 54 c -111 36 -194 57 -265 66 c -41 5 -109 15 -150 21 c -98 13 -348 8 -361 -8 z m 343 -637 c 105 -23 174 -62 259 -146 c 123 -122 176 -256 186 -475 c 4 -96 1 -139 -15 -215 c -93 -451 -477 -803 -911 -837 c -99 -7 -119 1 -155 67 c -62 114 -84 351 -67 736 c 17 399 47 636 87 696 c 85 130 401 219 616 174 z" stroke-linecap="round"/>
</g>
		<g transform="matrix(0.016 0 0 -0.016 -0.0581 -0.1897)" id="127528">
<path style="stroke: none; stroke-width: 1; stroke-dasharray: none; stroke-linecap: butt; stroke-dashoffset: 0; stroke-linejoin: miter; stroke-miterlimit: 4; is-custom-font: none; font-file-url: none; fill: rgb(186,0,0); fill-rule: nonzero; opacity: 1;" vector-effect="non-scaling-stroke" transform=" translate(-2882.8549, -2175.3213)" d="M 2760 2542 c -31 -15 -36 -23 -47 -77 c -27 -128 -34 -647 -10 -671 c 11 -12 80 10 123 39 c 98 65 217 248 245 376 c 44 207 -149 414 -311 333 z" stroke-linecap="round"/>
</g>
</g>
</g>
</svg>