<svg xmlns="http://www.w3.org/2000/svg" xmlns:xlink="http://www.w3.org/1999/xlink" version="1.1" width="150" height="150" viewBox="0 0 150 150" xml:space="preserve">
<desc>Created with Fabric.js 3.5.0</desc>
<defs>
</defs>
<rect x="0" y="0" width="100%" height="100%" fill="rgba(255,255,255,0)"/>
<g transform="matrix(0.198 0 0 0.198 62.5287 75.004)" id="207705">
<g style="" vector-effect="non-scaling-stroke">
		<g transform="matrix(9.1472 0 0 9.1472 -0.6061 0.2523)" id="text-0">
<path style="stroke: none; stroke-width: 1; stroke-dasharray: none; stroke-linecap: butt; stroke-dashoffset: 0; stroke-linejoin: miter; stroke-miterlimit: 4; is-custom-font: none; font-file-url: none; fill: rgb(170,170,170); fill-rule: nonzero; opacity: 1;" transform=" translate(-36.7, 18.125)" d="M 14.7 0 L 5.85 0 Q 4.55 0 3.78 -0.6 Q 3 -1.2 3 -2 L 3 -2 L 3 -34.55 Q 3 -35.35 3.78 -35.95 Q 4.55 -36.55 5.85 -36.55 L 5.85 -36.55 L 14.7 -36.55 Q 18.05 -36.55 20.7 -35.43 Q 23.35 -34.3 24.93 -31.78 Q 26.5 -29.25 26.5 -25.1 L 26.5 -25.1 L 26.5 -11.45 Q 26.5 -7.3 24.93 -4.78 Q 23.35 -2.25 20.7 -1.13 Q 18.05 0 14.7 0 L 14.7 0 Z M 9.5 -30.85 L 9.5 -5.7 L 14.7 -5.7 Q 17.2 -5.7 18.6 -7.13 Q 20 -8.55 20 -11.45 L 20 -11.45 L 20 -25.1 Q 20 -28 18.6 -29.43 Q 17.2 -30.85 14.75 -30.85 L 14.75 -30.85 L 9.5 -30.85 Z M 33.7 0.3 L 33.7 0.3 Q 32.25 0.3 31.27 -0.73 Q 30.3 -1.75 30.3 -3.1 L 30.3 -3.1 Q 30.3 -4.5 31.27 -5.5 Q 32.25 -6.5 33.7 -6.5 L 33.7 -6.5 Q 35.05 -6.5 36.05 -5.5 Q 37.05 -4.5 37.05 -3.1 L 37.05 -3.1 Q 37.05 -1.75 36.05 -0.73 Q 35.05 0.3 33.7 0.3 Z M 44.7 0 L 44.7 0 Q 43.5 0 42.47 -0.53 Q 41.45 -1.05 41.45 -2.05 L 41.45 -2.05 L 41.45 -33.3 Q 41.45 -35.1 42.47 -35.83 Q 43.5 -36.55 44.7 -36.55 L 44.7 -36.55 Q 45.9 -36.55 46.72 -36.3 Q 47.55 -36.05 48.27 -35.3 Q 49 -34.55 49.8 -33.1 L 49.8 -33.1 L 55.9 -21.9 L 62.05 -33.1 Q 62.95 -34.55 63.62 -35.3 Q 64.3 -36.05 65.15 -36.3 Q 66 -36.55 67.15 -36.55 L 67.15 -36.55 Q 68.4 -36.55 69.4 -35.83 Q 70.4 -35.1 70.4 -33.3 L 70.4 -33.3 L 70.4 -2.05 Q 70.4 -1.05 69.37 -0.53 Q 68.35 0 67.15 0 L 67.15 0 Q 65.95 0 64.92 -0.53 Q 63.9 -1.05 63.9 -2.05 L 63.9 -2.05 L 63.9 -23.55 L 58.1 -13.15 Q 57.65 -12.45 57.05 -12.15 Q 56.45 -11.85 55.85 -11.85 L 55.85 -11.85 Q 55.3 -11.85 54.72 -12.13 Q 54.15 -12.4 53.7 -13.15 L 53.7 -13.15 L 47.95 -23.95 L 47.95 -2.05 Q 47.95 -1.05 46.95 -0.53 Q 45.95 0 44.7 0 Z" stroke-linecap="round"/>
</g>
		<g transform="matrix(2.5223 0 0 2.5223 160.5174 0.2563)" id="tight-bounds">
<path style="stroke: rgb(255,255,255); stroke-opacity: 0; stroke-width: 1; stroke-dasharray: none; stroke-linecap: butt; stroke-dashoffset: 0; stroke-linejoin: miter; stroke-miterlimit: 4; is-custom-font: none; font-file-url: none; fill: rgb(0,116,217); fill-rule: nonzero; opacity: 1;" transform=" translate(-261.639, -123.6)" d="M 245.816 0 c 68.262 0 123.6 55.338 123.6 123.6 c 0 68.262 -55.338 123.6 -123.6 123.6 c -36.512 0 -69.327 -15.832 -91.954 -41.006 l 8.276 0 c 21.318 21.596 50.935 34.98 83.678 34.98 c 64.934 0 117.574 -52.64 117.574 -117.574 c 0 -64.934 -52.64 -117.574 -117.574 -117.574 c -32.743 0 -62.359 13.384 -83.678 34.98 l -8.276 0 c 22.626 -25.174 55.441 -41.006 91.954 -41.006 z" stroke-linecap="round"/>
</g>
		<g transform="matrix(2.5223 0 0 2.5223 -0.5996 0.2563)" id="tight-bounds">
<rect style="stroke: none; stroke-width: 1; stroke-dasharray: none; stroke-linecap: butt; stroke-dashoffset: 0; stroke-linejoin: miter; stroke-miterlimit: 4; is-custom-font: none; font-file-url: none; fill: none; fill-rule: nonzero; opacity: 1;" x="-197.76" y="-123.6" rx="0" ry="0" width="395.52" height="247.2"/>
</g>
</g>
</g>
<g transform="matrix(1 0 0 1 56.5968 78.9196)" style="" id="236240">
		
<path xml:space="preserve" font-family="Lato" font-size="91" font-style="normal" font-weight="bold" style="stroke: none; stroke-width: 1; stroke-dasharray: none; stroke-linecap: butt; stroke-dashoffset: 0; stroke-linejoin: miter; stroke-miterlimit: 4; is-custom-font: none; font-file-url: none; fill: rgb(0,116,217); fill-rule: nonzero; opacity: 1; white-space: pre;" d="M-6.32 22.40L-6.32 22.40Q-6.32 20.99-5.80 19.71Q-5.28 18.44-4.35 17.53Q-3.41 16.62-2.14 16.07Q-0.86 15.53 0.59 15.53L0.59 15.53Q2.00 15.53 3.28 16.07Q4.55 16.62 5.46 17.53Q6.37 18.44 6.92 19.71Q7.46 20.99 7.46 22.40L7.46 22.40Q7.46 23.85 6.92 25.11Q6.37 26.36 5.46 27.27Q4.55 28.18 3.28 28.70Q2.00 29.22 0.59 29.22L0.59 29.22Q-0.86 29.22-2.14 28.70Q-3.41 28.18-4.35 27.27Q-5.28 26.36-5.80 25.11Q-6.32 23.85-6.32 22.40Z"/></g>
</svg>